<svg width="18" height="18" viewBox="0 0 18 18" fill="none" xmlns="http://www.w3.org/2000/svg">
<path d="M16.1184 7.36842H10.1316V1.38158C10.1316 0.626316 9.50526 0 8.75 0C7.99474 0 7.36842 0.626316 7.36842 1.38158V7.36842H1.38158C0.626316 7.36842 0 7.99474 0 8.75C0 9.50526 0.626316 10.1316 1.38158 10.1316H7.36842V16.1184C7.36842 16.8737 7.99474 17.5 8.75 17.5C9.50526 17.5 10.1316 16.8737 10.1316 16.1184V10.1316H16.1184C16.8737 10.1316 17.5 9.50526 17.5 8.75C17.5 7.99474 16.8737 7.36842 16.1184 7.36842Z" fill="white"/>
</svg>
