<svg width="32" height="32" viewBox="0 0 32 32" fill="none" xmlns="http://www.w3.org/2000/svg">
<path d="M30.0895 15.2231L26.9998 16.7679L22.9998 9.10768L26.1209 7.5471C26.3554 7.42986 26.6266 7.40939 26.876 7.4901C27.1254 7.57082 27.3332 7.74626 27.4546 7.97866L30.5287 13.8658C30.5901 13.9835 30.6275 14.1123 30.6387 14.2446C30.6499 14.377 30.6346 14.5102 30.5937 14.6365C30.5528 14.7629 30.4871 14.8798 30.4006 14.9805C30.314 15.0812 30.2082 15.1637 30.0895 15.2231V15.2231Z" stroke="white" stroke-width="2" stroke-linecap="round" stroke-linejoin="round"/>
<path d="M4.99967 16.634L1.90996 15.0891C1.79118 15.0297 1.68542 14.9473 1.59885 14.8466C1.51228 14.7459 1.44664 14.6289 1.40575 14.5026C1.36486 14.3762 1.34955 14.243 1.36072 14.1107C1.37188 13.9783 1.40928 13.8495 1.47075 13.7318L4.54487 7.84469C4.66622 7.6123 4.87398 7.43685 5.12342 7.35613C5.37285 7.27541 5.64401 7.29588 5.87851 7.41313L8.99967 8.97371L4.99967 16.634Z" stroke="white" stroke-width="2" stroke-linecap="round" stroke-linejoin="round"/>
<path d="M26.9998 16.7679L24.9998 19.1077L20.4001 23.7073C20.278 23.8294 20.1264 23.9178 19.9599 23.9639C19.7935 24.01 19.618 24.0123 19.4505 23.9704L12.2059 22.1592C12.07 22.1252 11.9427 22.0631 11.8324 21.9768L4.99976 16.634" stroke="white" stroke-width="2" stroke-linecap="round" stroke-linejoin="round"/>
<path d="M24.9998 19.1077L19.4998 15.1077L17.8998 16.3077C17.2074 16.827 16.3653 17.1077 15.4998 17.1077C14.6343 17.1077 13.7922 16.827 13.0998 16.3077L12.4222 15.7995C12.3076 15.7135 12.2128 15.6039 12.1442 15.4781C12.0756 15.3523 12.0349 15.2133 12.0247 15.0704C12.0146 14.9274 12.0352 14.784 12.0853 14.6498C12.1354 14.5156 12.2138 14.3937 12.3151 14.2924L17.2069 9.40056C17.2998 9.3077 17.41 9.23404 17.5313 9.18379C17.6527 9.13353 17.7827 9.10767 17.914 9.10767H22.9998" stroke="white" stroke-width="2" stroke-linecap="round" stroke-linejoin="round"/>
<path d="M9.07153 8.97369L15.4865 7.1035C15.7157 7.0367 15.9612 7.05406 16.1787 7.15246L20.4997 9.10767" stroke="white" stroke-width="2" stroke-linecap="round" stroke-linejoin="round"/>
<path d="M13.9998 26.6077L10.2323 25.6658C10.0794 25.6276 9.93776 25.5538 9.81883 25.4504L6.99976 23" stroke="white" stroke-width="2" stroke-linecap="round" stroke-linejoin="round"/>
</svg>
