<svg width="33" height="32" viewBox="0 0 33 32" fill="none" xmlns="http://www.w3.org/2000/svg">
<path d="M11.1147 20C14.7046 20 17.6147 17.0899 17.6147 13.5C17.6147 9.91015 14.7046 7 11.1147 7C7.52489 7 4.61475 9.91015 4.61475 13.5C4.61475 17.0899 7.52489 20 11.1147 20Z" stroke="#787685" stroke-width="2" stroke-miterlimit="10"/>
<path d="M19.5413 7.24215C20.4353 6.99026 21.3729 6.93287 22.291 7.07386C23.209 7.21486 24.0862 7.55095 24.8635 8.0595C25.6407 8.56805 26.3 9.23726 26.7968 10.022C27.2936 10.8068 27.6165 11.689 27.7437 12.6091C27.8709 13.5291 27.7995 14.4658 27.5342 15.3559C27.2689 16.2461 26.8159 17.069 26.2058 17.7694C25.5957 18.4697 24.8426 19.0312 23.9972 19.416C23.1518 19.8008 22.2338 19.9999 21.305 20" stroke="#787685" stroke-width="2" stroke-linecap="round" stroke-linejoin="round"/>
<path d="M2.11426 24.6746C3.12943 23.2306 4.47712 22.052 6.04357 21.2384C7.61002 20.4248 9.34923 20.0001 11.1144 20C12.8795 19.9999 14.6187 20.4246 16.1852 21.238C17.7518 22.0515 19.0995 23.23 20.1148 24.6739" stroke="#787685" stroke-width="2" stroke-linecap="round" stroke-linejoin="round"/>
<path d="M21.3049 20C23.0702 19.9987 24.8098 20.4228 26.3765 21.2364C27.9431 22.05 29.2906 23.2291 30.305 24.6739" stroke="#787685" stroke-width="2" stroke-linecap="round" stroke-linejoin="round"/>
</svg>
